<?xml version="1.0" encoding="UTF-8" standalone="no"?>
<svg
   xmlns:dc="http://purl.org/dc/elements/1.1/"
   xmlns:cc="http://creativecommons.org/ns#"
   xmlns:rdf="http://www.w3.org/1999/02/22-rdf-syntax-ns#"
   xmlns:svg="http://www.w3.org/2000/svg"
   xmlns="http://www.w3.org/2000/svg"
   xmlns:sodipodi="http://sodipodi.sourceforge.net/DTD/sodipodi-0.dtd"
   xmlns:inkscape="http://www.inkscape.org/namespaces/inkscape"
   enable-background="new 0 0 800 800"
   height="743.14258"
   id="GUIDE"
   version="1.1"
   viewBox="0 0 379.38477 743.14258"
   width="379.38477"
   xml:space="preserve"
   sodipodi:docname="iconfinder_ram_2130484.svg"
   inkscape:version="0.92.3 (2405546, 2018-03-11)"><metadata
     id="metadata5913"><rdf:RDF><cc:Work
         rdf:about=""><dc:format>image/svg+xml</dc:format><dc:type
           rdf:resource="http://purl.org/dc/dcmitype/StillImage" /><dc:title></dc:title></cc:Work></rdf:RDF></metadata><defs
     id="defs5911" /><sodipodi:namedview
     pagecolor="#000000"
     bordercolor="#666666"
     borderopacity="1"
     objecttolerance="10"
     gridtolerance="10"
     guidetolerance="10"
     inkscape:pageopacity="1"
     inkscape:pageshadow="2"
     inkscape:window-width="1356"
     inkscape:window-height="729"
     id="namedview5909"
     showgrid="false"
     fit-margin-top="0"
     fit-margin-left="0"
     fit-margin-right="0"
     fit-margin-bottom="0"
     inkscape:zoom="0.295"
     inkscape:cx="130.37133"
     inkscape:cy="371.57225"
     inkscape:window-x="0"
     inkscape:window-y="18"
     inkscape:window-maximized="0"
     inkscape:current-layer="GUIDE" /><path
     style="fill:#ffffff"
     d="m 0,728.14257 c 0,8.286 6.717,15 15,15 h 250 99.38868 c 8.28,0 14.99609,-6.713 14.99609,-15 V 432.06836 c 0,-3.978 -1.57553,-7.79152 -4.39453,-10.60352 -2.807,-2.813 -6.62252,-4.39453 -10.60352,-4.39453 l -23.39258,0.004 v -90.99805 h 23.39258 c 8.279,0 14.9961,-6.71895 14.9961,-15.00195 V 14.99804 C 379.38282,6.7150402 372.66572,1.1169089e-7 364.38672,1.1169089e-7 h -99.38867 -250 C 6.71605,-9.9988831e-4 0,6.7130902 0,14.99609 Z m 30,-15 V 29.99804 h 220 v 683.14453 z m 32.5,-42.74804 c 0,8.286 6.71596,15 15.00196,15 H 202.5 c 8.286,0 14.99414,-6.713 14.99414,-15 V 585.7207 c 0,-8.282 -6.70814,-15 -14.99414,-15 H 77.50196 c -8.287,0.001 -15.00196,6.719 -15.00196,15 z m 0,-170.98828 c 0,8.283 6.71596,15 15.00196,15 H 202.5 c 8.286,0 14.99414,-6.716 14.99414,-15 v -84.67774 c 0,-8.282 -6.70814,-14.99804 -14.99414,-14.99804 H 77.50196 c -8.287,0 -15.00196,6.71604 -15.00196,14.99804 z m 0,-170.99219 c 0,8.283 6.71596,15.00391 15.00196,15.00391 H 202.5 c 8.286,0 14.99414,-6.72091 14.99414,-15.00391 v -84.67578 c 0,-8.283 -6.70814,-15.00195 -14.99414,-15.00195 H 77.50196 c -8.287,0 -15.00196,6.71895 -15.00196,15.00195 z m 0,-170.99023 c 0,8.286 6.71596,14.99804 15.00196,14.99804 H 202.5 c 8.286,0 14.99414,-6.71204 14.99414,-14.99804 V 72.746093 C 217.49414,64.46309 210.786,57.74414 202.5,57.74414 H 77.50196 c -8.287,0 -15.00196,6.71895 -15.00196,15.001953 z m 30,497.9746 V 600.7207 h 95 v 54.67773 z m 0,-170.99218 v -54.67578 h 95 v 54.67578 z m 0,-170.99219 v -54.67187 h 95 v 54.67187 z m 0,-170.98828 V 87.750003 h 95 V 142.42578 Z M 280.00196,713.14257 V 29.99804 h 69.38476 v 27.7461 H 319.9961 c -8.28,0 -15,6.71895 -15,15.001953 0,8.283 6.72,15 15,15 h 29.39062 V 122.16992 H 319.9961 c -8.28,0 -15,6.71891 -15,15.00391 0,8.283 6.72,15 15,15 h 29.39062 v 34.42578 H 319.9961 c -8.28,0 -15,6.71895 -15,15.00195 0,8.284 6.72,15 15,15 h 29.39062 V 251.0332 H 319.9961 c -8.28,0 -15,6.71505 -15,14.99805 0,8.28 6.72,14.99609 15,14.99609 h 29.39062 v 15.04688 h -23.39258 c -8.28,0 -15,6.714 -15,15 v 120.99804 c 0,3.98 1.58144,7.79347 4.39844,10.60547 2.806,2.813 6.62647,4.39649 10.60547,4.39649 l 23.38672,-0.002 v 15.04297 h -29.39063 c -8.28,0 -15,6.716 -15,15 0,8.286 6.72,15 15,15 h 29.39063 v 34.42774 h -29.39063 c -8.28,0 -15,6.714 -15,15 0,8.283 6.72,15 15,15 h 29.39063 v 34.42773 h -29.39063 c -8.28,0 -15,6.716 -15,15 0,8.284 6.72,15 15,15 h 29.39063 v 34.42773 h -29.39063 c -8.28,0 -15,6.71705 -15,14.99805 0,8.286 6.72,15 15,15 h 29.39063 v 27.74609 z"
     id="path5898"
     inkscape:connector-curvature="0" /></svg>